<?xml version="1.0" encoding="UTF-8" standalone="no"?>
<!DOCTYPE svg PUBLIC "-//W3C//DTD SVG 1.1//EN" "http://www.w3.org/Graphics/SVG/1.1/DTD/svg11.dtd">
<svg width="100%" height="100%" viewBox="0 0 250 250" version="1.1" xmlns="http://www.w3.org/2000/svg" xmlns:xlink="http://www.w3.org/1999/xlink" xml:space="preserve" xmlns:serif="http://www.serif.com/" style="fill-rule:evenodd;clip-rule:evenodd;stroke-linejoin:round;stroke-miterlimit:2;">
    <path d="M154.2,145C140.07,155.72 119.77,161.41 102.21,161.41C77.75,161.41 55.53,152.24 38.63,136.34C37.34,135.11 38.5,133.42 40.1,134.41C58.35,145.3 80.75,151.94 104.04,151.94C119.65,151.94 136.91,148.41 152.74,141.18C155.21,140.02 157.48,142.92 154.2,145Z" style="fill:rgb(240,138,59);"/>
    <path d="M161,137.1C158.89,134.31 147.88,135.78 142.91,136.48C141.35,136.73 141.09,135.32 142.52,134.31C151.45,127.94 165.88,129.87 167.68,132.14C169.48,134.43 167.24,148.94 158.85,156.06C157.52,157.25 156.25,156.61 156.86,155.08C158.82,150.4 163.13,139.86 161,137.1Z" style="fill:rgb(240,138,59);"/>
    <path d="M143.3,96.09L143.3,90.4C143.3,89.51 143.98,88.92 144.78,88.92L169.46,88.92C170.32,88.92 171,89.54 171,90.4L171,95.31C170.98,96.11 170.26,97.21 168.98,98.96L156.56,117.5C161.21,117.38 166.12,118.09 170.33,120.61C171.38,121.23 171.69,122.08 171.76,122.94L171.76,128.98C171.76,129.83 170.79,130.84 169.75,130.28C162.24,126.22 152.26,125.75 143.95,130.34C142.99,130.87 141.99,129.89 141.99,129L141.99,123.28C141.99,122.32 142.02,120.67 143.02,119.1L157.15,97.56L144.81,97.56C143.95,97.56 143.3,96.97 143.3,96.09Z" style="fill:white;"/>
    <path d="M53.81,130.5L46.69,130.5C45.91,130.44 45.29,129.84 45.23,129.1L45.23,90.5C45.23,89.64 45.94,88.96 46.82,88.96L53.49,88.96C54.29,88.99 54.91,89.61 54.97,90.38L54.97,95.54L55.1,95.54C56.93,90.56 60.32,88.23 64.91,88.23C69.6,88.23 72.56,90.56 74.71,95.54C76.51,90.56 80.57,88.23 84.94,88.23C88.08,88.23 91.51,89.55 93.66,92.62C96.06,96 95.56,100.92 95.56,105.29L95.56,128.98C95.56,129.84 94.85,130.52 93.97,130.52L86.85,130.52C86.02,130.46 85.37,129.78 85.37,128.98L85.37,109.14C85.37,107.46 85.52,103.15 85.15,101.55C84.56,98.89 82.85,98.12 80.61,98.12C78.81,98.12 76.92,99.35 76.12,101.4C75.32,103.45 75.41,106.84 75.41,109.14L75.41,128.96C75.41,129.82 74.7,130.5 73.82,130.5L66.7,130.5C65.84,130.44 65.22,129.76 65.22,128.96L65.22,109.14C65.22,104.74 65.96,98.03 60.61,98.03C55.2,98.03 55.45,104.58 55.45,109.14L55.45,128.96C55.42,129.82 54.71,130.5 53.81,130.5Z" style="fill:white;"/>
    <path d="M191.7,88.22C181.16,88.22 175.25,97.4 175.25,110.01C175.25,122.51 181.07,131.28 191.7,131.28C201.88,131.28 208.51,122.1 208.51,109.79C208.51,97.12 202.6,88.22 191.7,88.22ZM191.7,123.22C185.92,123.22 186.02,113.36 186.02,108.74C186.02,104.11 186.42,96.21 191.76,96.21C194.29,96.21 196.03,97.49 196.89,100.48C197.89,103.9 198.04,108.36 198.04,112C198.01,116.94 197.58,123.22 191.7,123.22Z" style="fill:white;"/>
    <path d="M223.8,130.5L215.86,130.5C215,130.44 214.35,129.76 214.35,128.96L214.35,90.35C214.41,89.55 215.09,88.93 215.95,88.93L223.26,88.93C224,88.96 224.62,89.49 224.77,90.17L224.77,96.22L224.9,96.22C227.04,90.82 229.87,88.23 235.17,88.23C238.53,88.23 241.8,89.46 243.97,92.94C245.99,96.16 245.99,101.52 245.99,105.42L245.99,129.11C245.9,129.88 245.22,130.47 244.39,130.47L236.82,130.47C236.05,130.41 235.43,129.85 235.34,129.11L235.34,108.78C235.34,104.5 235.86,97.97 230.69,97.97C228.89,97.97 227.24,99.23 226.38,101.19C225.33,103.63 225.18,106.06 225.18,108.78L225.18,128.96C225.15,129.82 224.44,130.5 223.8,130.5Z" style="fill:white;"/>
    <path d="M123,110.1L123,108.42C117.72,108.42 112.18,109.61 112.18,116.6C112.18,119.95 113.83,122.32 116.79,122.32C118.94,122.32 120.86,120.93 122.09,118.6C123.65,115.73 123,113.02 123,110.1ZM130.45,130.28C129.89,130.78 129.09,130.81 128.44,130.46C126.08,128.5 125.52,127.33 124.35,125.47C120.38,129.56 117.45,130.78 112.28,130.78C105.96,130.78 101.06,126.78 101.06,118.91C101.06,112.72 104.49,108.45 109.47,106.33C113.74,104.5 119.75,104.17 124.28,103.64L124.28,102.54C124.28,100.7 124.43,98.52 123.34,96.94C122.35,95.49 120.49,94.87 118.88,94.87C115.8,94.87 113.08,96.45 112.4,99.73C112.25,100.48 111.72,101.18 110.98,101.21L104.14,100.47C103.46,100.32 102.72,99.76 102.93,98.69C104.8,89.85 112.58,87.2 119.7,87.2C123.34,87.2 128.19,88.19 131.15,91.02C134.92,94.53 133.96,99.39 133.96,104.72L133.96,115.91C133.96,119.42 135.38,120.96 136.71,122.95C137.24,123.69 137.36,124.58 136.68,125.14C135.1,126.49 131.99,129.24 130.45,130.28Z" style="fill:white;"/>
    <path d="M24.88,110.1L24.88,108.42C19.6,108.42 14.06,109.61 14.06,116.6C14.06,119.95 15.71,122.32 18.67,122.32C20.82,122.32 22.75,120.93 23.98,118.6C25.53,115.73 24.88,113.02 24.88,110.1ZM32.33,130.28C31.77,130.78 30.97,130.81 30.32,130.46C27.96,128.5 27.4,127.33 26.23,125.47C22.26,129.56 19.33,130.78 14.16,130.78C7.84,130.78 2.94,126.78 2.94,118.91C2.94,112.72 6.37,108.45 11.35,106.33C15.62,104.5 21.63,104.17 26.17,103.64L26.17,102.54C26.17,100.7 26.32,98.52 25.22,96.94C24.23,95.49 22.37,94.87 20.76,94.87C17.68,94.87 14.96,96.45 14.28,99.73C14.13,100.48 13.6,101.18 12.86,101.21L6.02,100.47C5.34,100.32 4.6,99.76 4.81,98.69C6.71,89.85 14.46,87.2 21.58,87.2C25.22,87.2 30.08,88.19 33.04,91.02C36.8,94.53 36.21,99.39 36.21,104.72L36.21,115.91C36.21,119.42 37.63,120.96 38.96,122.95C39.49,123.69 39.61,124.58 38.93,125.14C37.35,126.49 34.24,129.24 32.33,130.28Z" style="fill:white;"/>
</svg>
