<?xml version="1.0" encoding="UTF-8" standalone="no"?>
<svg width="100%" height="100%" viewBox="0 0 256 149" version="1.1" xmlns="http://www.w3.org/2000/svg" style="fill-rule:evenodd;clip-rule:evenodd;stroke-linejoin:round;stroke-miterlimit:2;">
    <path d="M74.76,4.79C74.76,4.25 75.12,3.89 75.66,3.89L78.81,3.89C79.38,3.89 79.71,4.21 79.75,4.79L79.92,8.04C83.06,4.85 86.71,3.51 91.17,3.51C100.26,3.51 106.38,10.48 106.38,18.88L106.38,38.67C106.38,39.25 106.02,39.6 105.44,39.6L102.91,39.6C102.33,39.6 101.97,39.25 101.97,38.67L101.97,20.11C101.97,13.14 97.32,8.71 91.41,8.71C84.92,8.71 80.07,14.18 79.77,20.19L79.77,38.67C79.77,39.25 79.41,39.6 78.83,39.6L75.68,39.6C75.11,39.6 74.78,39.25 74.78,38.67L74.78,4.79L74.76,4.79Z" style="fill:rgb(255,255,255);fill-rule:nonzero;"/>
    <path d="M127,3.51C137.39,3.51 145.16,11.51 145.16,22.04C145.16,32.44 136.81,39.99 127.26,39.99C117,39.99 109.14,32.26 109.14,22.04C109.14,11.4 117.22,3.51 127,3.51ZM127.11,34.83C135.07,34.83 140.11,28.65 140.11,21.75C140.11,14.31 134.46,8.67 127.11,8.67C119.38,8.67 114.19,14.79 114.19,21.91C114.19,29.17 119.66,34.83 127.11,34.83Z" style="fill:rgb(255,255,255);fill-rule:nonzero;"/>
    <path d="M143.6,5.11C143.29,4.38 143.6,3.89 144.44,3.89L147.65,3.89C148.24,3.89 148.64,4.15 148.89,4.74L159.75,33.39L171.47,4.74C171.73,4.15 172.13,3.89 172.71,3.89L175.64,3.89C176.44,3.89 176.75,4.38 176.44,5.11L162.96,38.72C162.7,39.31 162.3,39.59 161.71,39.59L158.41,39.59C157.83,39.59 157.42,39.31 157.17,38.72L143.6,5.11Z" style="fill:rgb(255,255,255);fill-rule:nonzero;"/>
    <path d="M193.3,3.51C199.54,3.51 204.22,6.33 206.98,10.3L207.15,5.09C207.19,4.32 207.63,3.89 208.4,3.89L210.69,3.89C211.45,3.89 211.89,4.32 211.89,5.09L211.89,38.4C211.89,39.16 211.45,39.6 210.69,39.6L208.4,39.6C207.64,39.6 207.2,39.16 207.2,38.4L207.08,34.28C204.07,38.01 199.53,39.99 194.17,39.99C183.73,39.99 176.42,32.74 176.42,22.1C176.42,11.51 184.23,3.51 193.3,3.51ZM193.73,35.92C201.63,35.92 206.62,29.91 206.62,22.61C206.62,14.88 201.15,8.97 193.84,8.97C186.5,8.97 181.46,14.99 181.46,22.05C181.47,29.6 187.02,35.92 193.73,35.92Z" style="fill:rgb(255,255,255);fill-rule:nonzero;"/>
    <path d="M98.28,47.7C84.19,47.7 74.29,56.91 74.29,70.24L74.29,89.26C74.29,90.66 75.16,91.53 76.56,91.53L83.14,91.53C84.33,91.53 85.2,90.66 85.2,89.26L85.2,69.29C85.2,61.71 90.83,57.21 98.32,57.21L98.92,57.21C100.45,57.21 101.23,56.34 101.23,54.94L101.23,49.97C101.23,48.57 100.13,47.7 98.28,47.7Z" style="fill:rgb(255,255,255);fill-rule:nonzero;"/>
    <path d="M107.9,47.94C106.5,47.94 106.01,48.64 106.01,49.82L106.01,89.41C106.01,90.6 106.68,91.54 107.94,91.54L114.12,91.54C115.53,91.54 116.39,90.6 116.39,89.2L116.39,49.82C116.39,48.63 115.72,47.94 114.46,47.94L107.9,47.94Z" style="fill:rgb(255,255,255);fill-rule:nonzero;"/>
    <path d="M122,48.11C119.73,48.11 119.35,49.89 120.22,52.01L135.56,88.51C136.43,90.51 137.22,91.38 138.74,91.38L143.76,91.38C145.29,91.38 146.39,90.36 147.26,88.22L162.69,52.16C163.69,49.62 162.69,48.11 160.41,48.11L154.59,48.11C153.29,48.11 152.34,48.71 151.69,50.6L141.29,78.71L129.76,49.78C129.17,48.38 128.59,47.94 127.19,47.94L122,48.11Z" style="fill:url(#_Linear1_light);fill-rule:nonzero;"/>
    <path d="M184.1,47.7C171.33,47.7 162.09,57.75 162.09,70.01C162.09,82.12 171.33,92.02 184.18,92.02C190.53,92.02 196.55,89.75 200.06,86.6C200.85,85.89 200.74,84.55 199.95,83.68L195.5,79.4C194.81,78.71 193.79,78.71 192.77,79.48C189.73,81.67 187.73,82.27 184.73,82.27C178.63,82.27 173.81,78.75 172.33,73.78L202.64,73.95C204.76,73.95 205.35,72.76 205.35,70.15C205.35,57.28 196.51,47.7 184.1,47.7ZM171.81,65.94C173.58,59.92 177.63,57.02 184.03,57.02C190.05,57.02 194.24,61.05 195.36,65.79L171.81,65.94Z" style="fill:rgb(255,255,255);fill-rule:nonzero;"/>
    <path d="M233.1,47.41C220.33,47.41 210.67,57.63 210.67,70.01L210.67,89.03C210.67,90.43 211.54,91.3 212.94,91.3L218.76,91.3C220.02,91.3 220.79,90.36 220.79,89.03L220.79,69.22C220.79,61.71 225.43,57.28 232.52,57.28C240.07,57.28 243.82,63.13 243.82,69.22L243.82,89.03C243.82,90.36 244.59,91.3 245.85,91.3L251.67,91.3C253.07,91.3 253.94,90.43 253.94,89.03L253.94,69.22C253.94,57.09 244.93,47.41 233.1,47.41Z" style="fill:rgb(255,255,255);fill-rule:nonzero;"/>
    <path d="M66.27,27.23L61.69,27.23C59.35,27.23 59.06,28.56 59.06,30.13L59.06,49.01L26.79,49.01C25.48,49.01 24.42,50.07 24.42,51.38C24.42,52.7 25.48,53.75 26.79,53.75L38.73,53.75L39.12,53.74L38.73,53.74L39.01,53.73L38.99,53.73L38.73,53.74L39.12,53.74L38.93,53.74L38.99,53.73L38.73,53.73L39.12,53.74L38.73,53.74L38.95,53.74L38.73,53.74L38.91,53.74L38.73,53.74L38.99,53.74L38.73,53.74L38.91,53.74L38.73,53.74L38.91,53.74L38.73,53.74L39.01,53.74L38.81,53.74L39.01,53.74L38.73,53.74C40.43,53.74 41.22,53.88 41.22,53.88C42.53,53.88 43.04,54.88 43.04,56.03C43.04,57.34 41.98,58.27 40.67,58.27L17.38,58.27C16.07,58.27 15.01,59.06 15.01,60.37C15.01,61.68 16.07,62.74 17.38,62.74L26.01,62.74C27.32,62.74 28.38,63.43 28.38,64.74C28.38,66.05 27.32,66.73 26.01,66.73L9.08,66.73C7.77,66.73 6.71,67.79 6.71,69.1C6.71,70.41 7.77,71.47 9.08,71.47L19.59,71.47C20.9,71.47 21.31,72.09 21.31,73.15C21.31,74.46 20.44,75.01 19.13,75.01L4.63,75.01C3.32,75.01 2.45,75.95 2.45,77.26C2.45,78.57 3.32,79.51 4.63,79.51L27.1,79.51C28.41,79.51 29.14,80.28 29.14,81.59C29.14,82.9 28.41,83.74 27.1,83.74L19.2,83.74C17.89,83.74 16.83,84.8 16.83,86.11C16.83,87.42 17.89,88.48 19.2,88.48L34.62,89.03C33.57,87.09 33.21,84.71 33.78,82.32C35.09,76.82 39.81,74.71 44.43,74.98C52.02,75.41 54.78,81.23 54.4,86.06C54.2,88.32 53.14,89.75 52.69,90.62L66.28,90.62C68.19,90.62 68.67,89.18 68.67,87.96L68.67,30.13C68.67,28.56 67.92,27.23 66.27,27.23Z" style="fill:url(#_Linear2_light);fill-rule:nonzero;"/>
    <path d="M44.06,79.12C39.17,79.12 37.52,82.61 37.52,85.08C37.52,88.87 39.99,91.18 44.06,91.18C48.32,91.18 50.41,88.06 50.41,84.94C50.41,82.15 48.48,79.12 44.06,79.12Z" style="fill:url(#_Linear3_light);fill-rule:nonzero;"/>
    <path d="M31.83,114.9L31.83,144.8L37.85,144.8L37.85,123.1L45.81,123.1L46.39,117.27L37.85,117.27L37.85,115.72C37.85,112.42 39.43,110.94 42.44,110.94L47.26,110.94L47.42,105.61L41.31,105.61C35.41,105.61 31.83,109.45 31.83,114.9Z" style="fill:rgb(255,255,255);fill-rule:nonzero;"/>
    <path d="M49.61,116.9L49.46,132.97C49.46,140.19 55.29,145.37 61.57,144.96C69.03,144.96 72.68,139.35 72.68,133.65L72.54,116.9L67.27,116.9L67.27,132.12C67.27,136.27 65.06,138.67 61.41,138.67C57.76,138.67 55.71,135.93 55.71,132.12L55.61,116.9L49.61,116.9Z" style="fill:rgb(255,255,255);fill-rule:nonzero;"/>
    <rect x="78.51" y="105.9" width="6.41" height="38.88" style="fill:rgb(255,255,255);fill-rule:nonzero;"/>
    <path d="M91.2,115.7L91.2,144.78L96.34,144.78L96.34,123.08L104.62,123.08L104.86,117.64L96.72,117.64L96.72,115.7C96.72,112.7 98.12,110.92 101.36,110.92L105.24,110.92L105.5,105.9L101.24,105.9C94.71,105.9 91.2,110.18 91.2,115.7Z" style="fill:rgb(255,255,255);fill-rule:nonzero;"/>
    <path d="M108.4,116.9L108.4,144.77L114.55,144.77L114.55,116.9L108.4,116.9ZM108.45,108.93L108.45,110.37C108.45,112.65 109.55,113.75 111.7,113.75L112.24,113.75C114.39,113.75 115.44,112.65 115.44,110.37L115.44,109.48C115.44,107.8 114.39,106.75 112.52,106.75L111.37,106.75C109.5,106.75 108.45,107.65 108.45,108.93Z" style="fill:rgb(255,255,255);fill-rule:nonzero;"/>
    <rect x="120.4" y="105.6" width="5.75" height="39.19" style="fill:rgb(255,255,255);fill-rule:nonzero;"/>
    <path d="M131.9,127.5L131.64,144.84L137.92,144.84L137.92,128.74C137.92,124.81 140.03,122.69 143.12,122.69C146.37,122.69 148.32,125.04 148.32,128.44L148.32,144.84L153.97,144.84L153.97,128.44C153.97,124.89 156.22,122.69 159.33,122.69C162.63,122.69 164.45,125.19 164.45,128.74L164.53,144.84L170.61,144.84L170.61,128.74C170.61,121.84 165.78,116.44 159.92,116.44C156.14,116.44 153.45,118.64 151.2,120.49C148.9,118.29 146.64,116.44 142.72,116.44C135.87,116.44 131.9,121.34 131.9,127.5Z" style="fill:rgb(255,255,255);fill-rule:nonzero;"/>
    <path d="M175.1,131.2C175.1,139.58 180.81,145.08 188.91,145.08C193.77,145.08 197.15,143.31 199.22,140.13L195.55,135.98C193.97,138.6 191.55,139.28 188.76,139.28C184.55,139.28 182.05,137 181.28,133.16L199.76,133.16L200.07,129.79C200.07,122.33 195.05,116.61 188.2,116.61C180.45,116.61 175.1,123.16 175.1,131.2ZM181.59,128.38C182.81,124.52 185.15,122.25 188.68,122.25C192.41,122.25 194.95,124.78 194.95,128.33L181.59,128.38Z" style="fill:rgb(255,255,255);fill-rule:nonzero;"/>
    <path d="M205.8,128.4L205.64,144.8L211.54,144.8L211.54,129C211.54,125 213.96,122.3 217.61,122.3C221.07,122.3 223.64,125.12 223.64,128.75L223.56,144.8L229.58,144.8L229.58,128.4C229.58,121.5 223.91,116.1 217.8,116.4C210.34,116.4 205.8,121.07 205.8,128.4Z" style="fill:rgb(255,255,255);fill-rule:nonzero;"/>
    <path d="M236.2,108.3L236.2,133.91C236.2,141.05 240.27,144.95 246.05,144.95L249.6,144.95L249.6,138.85L246.78,138.85C243.67,138.85 241.75,137.15 241.75,133.08L241.75,122.6L248.96,122.6L248.96,116.9L241.5,116.9L241.5,108.3L236.2,108.3Z" style="fill:rgb(255,255,255);fill-rule:nonzero;"/>
    <defs>
        <linearGradient id="_Linear1_light" x1="0" y1="0" x2="1" y2="0" gradientUnits="userSpaceOnUse" gradientTransform="matrix(43.1,0,0,43.1,120,69.65)"><stop offset="0" style="stop-color:rgb(55,132,231);stop-opacity:1"/><stop offset="1" style="stop-color:rgb(46,103,204);stop-opacity:1"/></linearGradient>
        <linearGradient id="_Linear2_light" x1="0" y1="0" x2="1" y2="0" gradientUnits="userSpaceOnUse" gradientTransform="matrix(66.222,0,0,66.222,2.448,58.13)"><stop offset="0" style="stop-color:rgb(255,255,255);stop-opacity:1"/><stop offset="1" style="stop-color:rgb(220,230,245);stop-opacity:1"/></linearGradient>
        <linearGradient id="_Linear3_light" x1="0" y1="0" x2="1" y2="0" gradientUnits="userSpaceOnUse" gradientTransform="matrix(12.89,0,0,12.89,37.52,85.15)"><stop offset="0" style="stop-color:rgb(255,255,255);stop-opacity:1"/><stop offset="1" style="stop-color:rgb(220,230,245);stop-opacity:1"/></linearGradient>
    </defs>
</svg>
