<?xml version="1.0" encoding="UTF-8" standalone="no"?>
<!DOCTYPE svg PUBLIC "-//W3C//DTD SVG 1.1//EN" "http://www.w3.org/Graphics/SVG/1.1/DTD/svg11.dtd">
<svg width="100%" height="100%" viewBox="0 0 250 73" version="1.1" xmlns="http://www.w3.org/2000/svg" xmlns:xlink="http://www.w3.org/1999/xlink" xml:space="preserve" xmlns:serif="http://www.serif.com/" style="fill-rule:evenodd;clip-rule:evenodd;stroke-linejoin:round;stroke-miterlimit:2;">
    <path d="M55.74,13.45C55.68,13.01 55.3,12.77 54.98,12.74C54.66,12.71 48.94,12.65 48.94,12.65C48.94,12.65 44.08,7.99 43.6,7.51C43.11,7.03 42.19,7.18 41.81,7.3C41.8,7.31 40.91,7.6 39.46,8.09C39.17,7.16 38.72,6.06 38.07,4.97C36.41,2.18 34.02,0.7 31.23,0.68C31.01,0.68 30.78,0.7 30.55,0.72C30.45,0.61 30.35,0.49 30.23,0.37C28.95,-0.87 27.34,-1.45 25.45,-1.37C21.86,-1.23 18.29,1.51 15.38,6.36C13.31,9.93 11.75,14.55 11.29,17.99C6.76,19.52 3.61,20.59 3.53,20.62C1.19,21.45 1.11,21.53 0.81,23.74C0.58,25.46 -5,65.24 -5,65.24L41.18,72.91L63.18,67.86C63.18,67.86 55.8,13.89 55.74,13.45ZM37.32,9.04C36.22,9.42 34.97,9.85 33.62,10.32C33.59,8.14 33.33,5.18 32.31,2.67C35.42,3.26 36.82,6.81 37.32,9.04ZM31.32,11.31C28.86,12.17 26.21,13.08 23.56,13.98C24.36,10.86 25.86,7.76 27.71,5.71C28.42,4.93 29.4,4.09 30.59,3.59C31.81,5.99 32.01,9.37 31.32,11.31ZM27.75,1.23C28.56,1.2 29.26,1.4 29.87,1.8C28.81,2.36 27.77,3.2 26.81,4.31C24.39,7.04 22.53,11.37 21.78,15.46C19.53,16.26 17.34,17.02 15.31,17.72C16.69,11.09 21.91,1.49 27.75,1.23Z" style="fill:rgb(149,191,71);fill-rule:nonzero;"/>
    <path d="M44.9,8.72L41.28,72.91L63.28,67.86C63.28,67.86 55.9,13.89 55.84,13.45C55.78,13.01 55.4,12.77 55.08,12.74C54.76,12.71 49.04,12.65 49.04,12.65C49.04,12.65 46.01,9.65 45.27,8.91C45.13,8.77 44.99,8.71 44.9,8.72Z" style="fill:rgb(94,142,62);fill-rule:nonzero;"/>
    <path d="M32.81,25.31L29.99,34.49C29.99,34.49 27.51,33.28 24.58,33.52C20.39,33.83 20.34,36.54 20.39,37.26C20.65,40.89 30.09,41.71 30.66,50.01C31.12,56.76 27.19,61.37 21.42,61.78C14.56,62.28 10.81,58.28 10.81,58.28L12.51,51.77C12.51,51.77 16.28,54.74 19.37,54.5C21.48,54.35 22.29,52.58 22.19,51.34C21.84,46.65 13.98,46.95 13.45,39.4C12.99,32.82 17.34,26.14 26.91,25.43C30.67,25.13 32.81,25.31 32.81,25.31Z" style="fill:rgb(254,255,254);fill-rule:nonzero;"/>
    <g transform="matrix(1,0,0,1,59,-4.57325)">
        <path d="M32.81,25.31L29.99,34.49C29.99,34.49 27.51,33.28 24.58,33.52C20.39,33.83 20.34,36.54 20.39,37.26C20.65,40.89 30.09,41.71 30.66,50.01C31.12,56.76 27.19,61.37 21.42,61.78C14.56,62.28 10.81,58.28 10.81,58.28L12.51,51.77C12.51,51.77 16.28,54.74 19.37,54.5C21.48,54.35 22.29,52.58 22.19,51.34C21.84,46.65 13.98,46.95 13.45,39.4C12.99,32.82 17.34,26.14 26.91,25.43C30.67,25.13 32.81,25.31 32.81,25.31Z" style="fill:rgb(254,255,254);fill-rule:nonzero;"/>
    </g>
    <path d="M116.8,25.51C113.02,25.51 110.01,27.35 107.65,30.24L107.53,30.18L110.47,13.08L101.59,13.08L93.35,57.42L102.23,57.42L104.76,43.41C105.9,37.38 108.85,33.67 111.55,33.67C113.51,33.67 114.3,35.03 114.3,37.04C114.3,38.34 114.12,39.98 113.83,41.28L110.05,57.42L118.93,57.42L122.87,39.56C123.34,37.43 123.63,35.21 123.63,33.53C123.65,28.51 121.03,25.51 116.8,25.51Z" style="fill:white;fill-rule:nonzero;"/>
    <path d="M142.8,25.51C132.37,25.51 125.4,35.03 125.4,45.81C125.4,52.61 129.57,58.03 137.41,58.03C147.62,58.03 154.02,48.78 154.02,37.73C154.02,31.46 150.41,25.51 142.8,25.51ZM138.63,50.76C135.68,50.76 134.48,48.19 134.48,45.06C134.48,39.96 137.1,32.63 141.61,32.63C144.67,32.63 145.58,35.34 145.58,37.96C145.58,43.49 142.96,50.76 138.63,50.76Z" style="fill:white;fill-rule:nonzero;"/>
    <path d="M175.6,25.51C169.87,25.51 166.63,30.75 166.63,30.75L166.51,30.75L166.98,26.06L159.14,26.06C158.73,29.44 157.94,34.73 157.2,38.62L150.85,69.06L160,69.06L162.42,56.13L162.59,56.13C162.59,56.13 164.45,57.43 167.94,57.43C177.79,57.43 184.43,46.99 184.43,36.5C184.43,30.58 181.72,25.51 175.6,25.51ZM167.52,50.7C165.27,50.7 163.91,49.39 163.91,49.39L165.33,41.1C166.35,35.46 169.16,31.74 172.1,31.74C174.76,31.74 175.55,34.26 175.55,36.67C175.55,42.51 172.17,50.7 167.52,50.7Z" style="fill:white;fill-rule:nonzero;"/>
    <path d="M196.4,13.6C193.46,13.6 191.1,15.95 191.1,19.02C191.1,21.78 192.88,23.73 195.54,23.73L195.66,23.73C198.54,23.73 200.96,21.72 201.02,18.29C201.02,15.61 199.19,13.6 196.4,13.6Z" style="fill:white;fill-rule:nonzero;"/>
    <path d="M184.4,57.01L192.7,57.01L198.7,27.09L189.99,27.09L184.4,57.01Z" style="fill:white;fill-rule:nonzero;"/>
    <path d="M222,26.32L216.05,26.32L216.4,24.81C216.92,21.86 218.7,19.24 221.59,19.24C222.92,19.24 223.99,19.59 223.99,19.59L225.76,12.62C225.76,12.62 224.35,11.89 221.29,11.89C218.23,11.89 215.17,12.74 212.87,14.81C209.92,17.43 208.56,21.14 207.83,24.81L207.59,26.32L201.67,26.32L200.31,33.06L205.38,33.06L200.31,57.25L209.19,57.25L213.69,33.06L220.55,33.06L221.05,28.91L222,26.32Z" style="fill:white;fill-rule:nonzero;"/>
    <path d="M241.8,26.32C241.8,26.32 236.35,41.22 233.87,48.92L233.75,48.92C233.59,46.43 231.46,26.32 231.46,26.32L222.16,26.32L227.84,53.93C227.96,54.57 227.9,54.98 227.61,55.45C226.58,57.52 224.75,59.53 222.56,60.95C220.83,62.15 218.93,62.94 217.4,63.52L219.93,71.3C221.83,70.83 225.66,69.26 229,66.13C233.23,62.13 237.11,55.92 241.16,47.31L250.04,26.91L249.81,26.32L241.8,26.32Z" style="fill:white;fill-rule:nonzero;"/>
</svg>
