<?xml version="1.0" encoding="UTF-8" standalone="no"?>
<!DOCTYPE svg PUBLIC "-//W3C//DTD SVG 1.1//EN" "http://www.w3.org/Graphics/SVG/1.1/DTD/svg11.dtd">
<svg width="100%" height="100%" viewBox="0 0 169 35" version="1.1" xmlns="http://www.w3.org/2000/svg" xmlns:xlink="http://www.w3.org/1999/xlink" xml:space="preserve" xmlns:serif="http://www.serif.com/" style="fill-rule:evenodd;clip-rule:evenodd;stroke-linejoin:round;stroke-miterlimit:2;">
    <path d="M5.83,0L52.61,0C56.12,0 57.91,2.97 57.91,5.73L57.91,23.51C57.91,26.42 55.47,28.82 52.66,28.71L35.72,28.71L38.21,34.67L28.16,28.71L6.04,28.71C3.18,28.71 0.96,26.16 0.96,23.51L0.96,5.23C0.96,2.53 3.13,0 5.83,0Z" style="fill:rgb(155,84,138);"/>
    <path d="M3.55,5.05C4.01,4.46 4.68,4.21 5.25,4.26C6.65,4.36 6.95,5.16 7.11,6.81C7.73,12.22 8.45,16.96 9.46,18.71L13.85,8.88C14.36,7.73 14.98,7.15 15.76,7.2C16.87,7.25 17.28,8.14 17.49,9.55C17.95,12.62 18.63,15.94 19.79,17.69C20.7,12.41 22.1,5.95 23.36,3.96C23.87,3.18 24.55,3.02 25.32,3.23C26.63,3.6 27.14,4.53 26.78,5.95C26.68,6.53 26.37,7.31 26.06,8.25C24.81,11.83 23.05,17.53 23.26,23.94C23.31,25.2 22.85,25.83 21.84,25.94C21.06,26.05 20.34,25.63 19.67,24.74C17.75,22.14 16.45,18.82 15.44,14.8C14.24,17.38 12.42,21.4 11.02,24.53C10.45,25.84 9.72,26.16 8.71,25.95C7.83,25.74 7.32,24.95 7.01,23.64C5.86,19.24 4.21,10.76 3.8,8.06C3.64,6.59 3.04,5.68 3.55,5.05Z" style="fill:rgb(254,254,254);"/>
    <path d="M34.31,5.79C36.08,5.73 37.53,6.37 38.63,7.79C39.89,9.44 40.46,11.99 40.2,14.79C39.69,20.11 36.83,23.78 32.81,23.78C32.5,23.78 32.14,23.73 31.78,23.67C28.22,23 26.62,18.98 26.98,14.8C27.5,9.96 30.15,5.95 33.95,5.79L34.31,5.79ZM33.79,19.56C35.44,18.83 36.54,16.24 36.54,13.69C36.54,11.24 35.49,9.72 34.39,9.72C32.68,9.77 31.08,12.53 31.08,15.61C31.02,17.8 31.94,19.55 33.05,19.66C33.26,19.71 33.52,19.66 33.78,19.56L33.79,19.56Z" style="fill:rgb(254,254,254);"/>
    <path d="M48.56,5.79C50.33,5.73 51.78,6.37 52.88,7.79C54.14,9.44 54.71,11.99 54.45,14.79C53.94,20.11 51.08,23.78 47.11,23.78C46.75,23.78 46.39,23.73 46.03,23.67C42.52,23 40.87,18.98 41.28,14.8C41.8,9.96 44.45,5.95 48.16,5.79L48.57,5.79L48.56,5.79ZM47.99,19.56C49.64,18.83 50.74,16.24 50.74,13.69C50.74,11.24 49.69,9.82 48.63,9.82C46.92,9.87 45.37,12.63 45.37,15.71C45.32,17.9 46.19,19.65 47.35,19.76C47.56,19.71 47.77,19.66 47.98,19.56L47.99,19.56Z" style="fill:rgb(254,254,254);"/>
    <path d="M68.47,6.06C67.02,6.06 65.05,6.64 63.29,9.03C61.89,11.02 61.27,13.05 61.32,15.5C61.37,19.03 63.54,23.26 68.42,23.26C69.53,23.26 70.63,23.05 71.64,22.74L71.64,18.93C70.77,19.35 69.85,19.56 68.97,19.56C66.48,19.56 66.12,17.12 66.12,15.41C66.12,13.33 66.79,10.16 69.44,10.16C70.21,10.16 71.04,10.37 71.71,10.69L71.71,6.56C70.74,6.2 69.69,6.05 68.48,6.05L68.47,6.06ZM79.67,6C74.93,6 72.71,9.29 72.71,14.8C72.71,20.31 74.83,23.33 79.67,23.33C84.36,23.33 86.38,20.11 86.38,14.75C86.38,9.39 84.41,6.01 79.67,6.01L79.67,6ZM79.62,19.61C77.86,19.61 77.45,17.8 77.45,14.73C77.45,11.51 77.91,9.6 79.62,9.6C81.44,9.6 81.75,11.63 81.75,14.95C81.75,17.91 81.34,19.61 79.63,19.61L79.62,19.61ZM97.71,6.53L95.74,15.31L94.23,6.53L88.38,6.53L86.56,22.79L90.69,22.79L91.6,11.4L94.3,22.79L97.06,22.79L99.61,11.45L100.67,22.79L105.06,22.79L103.41,6.53L97.71,6.53ZM117.11,6.53L115.14,15.31L113.53,6.53L108.13,6.53L106.21,22.79L110.34,22.79L111.26,11.4L113.96,22.79L116.72,22.79L119.32,11.45L120.38,22.79L124.77,22.79L122.75,6.53L117.11,6.53ZM130.02,16.09L133.63,16.09L133.63,13.12L130.02,13.12L130.02,10.05L134.25,10.05L134.25,6.63L125.9,6.63L125.9,22.89L134.31,22.89L134.31,19.51L130.02,19.51L130.02,16.09ZM146.61,13.75C147.28,12.71 147.69,11.83 147.64,10.58C147.59,7.93 145.41,6.58 141.71,6.58L135.91,6.58L135.91,22.89L140.25,22.89L140.25,15.22L143.96,22.84L148.54,22.84L145.18,15.82C145.75,15.41 146.21,14.73 146.62,13.75L146.61,13.75ZM140.24,13.8L140.24,9.78C142.06,9.78 142.98,10.04 142.98,11.51C143.03,12.82 142.11,13.65 140.24,13.8ZM156.07,19.45C153.58,19.45 152.75,17.59 152.75,14.94C152.75,12.71 153.53,10.11 155.92,10.11C156.75,10.11 157.62,10.32 158.45,10.69L158.45,6.46C157.34,6.15 156.19,6.05 155.13,6.05C150.84,6.05 148.4,9.81 148.4,14.59C148.4,19.09 150.74,23.21 155.43,23.21C156.53,23.21 157.54,23.05 158.65,22.79L158.65,18.93C157.78,19.29 156.9,19.45 156.08,19.45L156.07,19.45ZM163.93,19.47L163.93,17.01L167.74,17.01L167.74,13.36L163.93,13.36L163.93,10.29L168.27,10.29L168.27,6.64L160.01,6.64L160.01,22.9L168.16,22.9L168.16,19.47L163.93,19.47Z" style="fill:white;"/>
</svg>
